<svg xmlns="http://www.w3.org/2000/svg" width="181" height="32" viewBox="0 0 181 32" fill="none">
    <path d="M36.8813 1.31393H36.2374V30.9042H36.8813V1.31393Z" fill="#0F4C8F"/>
    <path d="M140.629 16.1142L140.992 13.5592H136.682C135.28 13.5592 134.262 12.5206 134.418 11.2431L135.228 4.90755C135.301 4.32592 135.602 3.77546 136.08 3.34962C136.62 2.87186 137.347 2.59143 138.074 2.59143H149.374L151.202 2.60182C151.929 2.60182 152.594 2.88224 153.009 3.36001C153.373 3.78584 153.529 4.33631 153.456 4.91794L152.677 11.2639C152.5 12.5414 151.212 13.58 149.81 13.58H145.51L145.168 16.135L140.629 16.1142ZM145.936 9.97601H147.982C148.149 9.97601 148.304 9.84099 148.335 9.67481L148.824 6.15389H146.445L145.936 9.97601ZM139.071 9.96562H141.418L141.699 8.05456L141.917 6.1435H139.549L139.071 9.96562Z" fill="#035597"/>
    <path d="M44.806 16.0623L46.0939 6.10197H41.5551L43.8297 2.51874H54.704L54.2574 6.10197H50.5703L49.2824 16.0623H44.806Z" fill="#035597"/>
    <path d="M157.112 16.0623L158.4 6.10197H154.432L154.879 2.51874H168.287L166.106 6.10197H162.876L161.578 16.0623H157.112Z" fill="#035597"/>
    <path d="M76.0164 16.0623L75.7776 13.7046L71.405 13.7566L70.6364 16.0623H66.0561L70.761 3.19383C70.8961 2.80954 71.3427 2.52911 71.7893 2.52911H78.3533C78.8207 2.52911 79.1635 2.79915 79.1946 3.18344L80.6279 16.0727H76.0164V16.0623ZM72.6825 10.3188H75.4037L74.9882 6.57972H74.0846L72.6825 10.3188Z" fill="#035597"/>
    <path d="M88.8746 16.0623L89.5081 11.2431H86.9324L86.3092 16.0623H81.7912L83.5257 2.51874H88.0437L87.3686 7.61835H89.9444L90.6091 2.51874H95.3763L93.6418 16.0623H88.8746Z" fill="#035597"/>
    <path d="M115.089 16.0623L115.712 11.2431H113.147L112.524 16.0623H108.006L109.73 2.51874H114.248L113.583 7.61835H116.149L116.813 2.51874H121.591L119.857 16.0623H115.089Z" fill="#035597"/>
    <path d="M98.3987 16.1143C97.4535 16.1143 96.5915 15.7507 96.041 15.1068C95.5529 14.5356 95.3348 13.8085 95.4386 13.0607L96.4045 5.62421C96.498 4.86601 96.8927 4.13898 97.5159 3.58851C98.2325 2.95496 99.188 2.58105 100.144 2.58105H105.025C106.562 2.58105 108.276 3.25616 108.047 5.14644L107.757 7.49372H103.27L103.457 6.16429H103.166C102.927 6.16429 101.13 6.1539 101.13 6.1539H100.839L100.808 6.44471C100.798 6.57974 100.549 8.35577 100.341 9.77868C100.154 11.0977 100.04 11.9182 100.029 11.9805L99.9981 12.261H102.564L102.761 10.9419H107.268L107.009 13.0815C106.78 14.764 105.108 16.1454 103.28 16.1454H98.3987V16.1143Z" fill="#035597"/>
    <path d="M121.383 16.1142L123.107 2.57065H134.169L133.732 6.12272H127.189L126.961 7.81567L133.494 7.78451L133.099 10.8484L126.566 10.8796L126.327 12.5725H132.881L132.434 16.1142H121.383Z" fill="#035597"/>
    <path d="M54.5275 16.0623L54.8494 13.7877L56.075 2.52911L65.1006 2.5395C65.8276 2.5395 66.482 2.81993 66.8974 3.29769C67.2609 3.72352 67.4167 4.27399 67.344 4.85562L66.5651 11.2016C66.3885 12.4791 65.1006 13.5177 63.6985 13.5177H59.3986L59.0558 16.0727H54.5275V16.0623ZM60.2502 6.77706L59.8348 9.92408H61.829C62.0263 9.92408 62.2029 9.76828 62.234 9.57095L62.7222 6.10196H60.3437L60.2502 6.77706Z" fill="#035597"/>
    <path d="M167.28 16.0519L168.682 5.03219L169.014 2.51874H173.543L173.158 5.32301H177.469C178.871 5.32301 179.889 6.36163 179.733 7.63913L178.954 13.7254C178.881 14.3071 178.58 14.8575 178.102 15.2834C177.562 15.7611 176.835 16.0415 176.108 16.0415H167.28V16.0519ZM172.244 12.4895H174.28C174.592 12.4895 174.592 12.4895 175.038 9.20744L175.08 8.91663H172.722L172.244 12.4895Z" fill="#035597"/>
    <path d="M13.2528 24.2986C8.96327 22.3148 6.05514 18.7939 5.20347 15.0341C4.77764 12.9153 5.53583 11.5132 6.02398 10.7342C6.55368 9.89292 7.20801 9.84099 7.20801 9.84099C7.20801 9.84099 6.54329 9.51902 5.65008 9.39439C4.52837 9.22821 3.06392 9.35284 2.14994 10.7654C1.46445 12.3752 1.06977 14.1513 1.05939 16.0104C1.08016 19.5832 2.43036 23.7169 6.54329 27.0094C7.69616 27.861 8.97366 28.5361 10.355 28.9931C10.542 29.0554 10.7393 29.1074 10.9263 29.1593C11.5287 29.3255 12.1207 29.4501 12.6919 29.5332C12.7335 29.5332 12.775 29.5436 12.8165 29.554C12.9931 29.5747 13.1697 29.5955 13.3462 29.6163C13.6059 29.6371 13.8656 29.6682 14.1252 29.6682C14.2602 29.6682 14.3849 29.6786 14.5199 29.6786C14.5614 29.6786 14.6134 29.6786 14.6549 29.6786C14.9042 29.6786 15.1534 29.6682 15.4027 29.6578C15.4131 29.6578 15.4131 29.6578 15.4131 29.6578C15.6624 29.6474 15.9116 29.6267 16.1609 29.5955C16.1921 29.5955 16.2128 29.5851 16.244 29.5851C16.4517 29.554 16.6594 29.5228 16.8568 29.4916C16.9814 29.4709 17.106 29.4501 17.2203 29.4293C17.2411 29.4293 17.2618 29.4189 17.2826 29.4189C19.5572 28.9516 21.4579 27.9129 22.9015 26.8536C23.7428 26.1992 24.5114 25.4514 25.1761 24.6205C21.8421 26.1992 17.3969 26.22 13.2528 24.2986Z" fill="#0F4C8F"/>
    <path d="M5.9513 8.43885C8.28819 5.47879 11.8818 3.53657 15.9428 3.53657C18.9548 3.53657 21.7175 4.58558 23.8986 6.32007C21.4683 4.05588 18.207 2.65375 14.6134 2.65375C9.86689 2.65375 5.70203 5.0945 3.27167 8.79198C3.95716 8.4804 4.94384 8.26229 5.9513 8.43885Z" fill="#0F4C8F"/>
    <path d="M13.9175 23.2807C15.6104 24.2466 17.4696 24.7867 19.3183 24.9529C20.0869 24.7659 20.8347 24.4855 21.489 24.1116C24.0959 22.481 31.8025 11.7936 31.8025 11.7936C31.8025 11.7936 27.6065 10.9315 25.7889 12.261C23.9609 13.5904 22.6003 15.7092 20.575 17.9838C18.5497 20.2687 17.6669 21.702 15.8805 22.1486C14.551 22.4914 13.2943 22.429 12.1726 22.1798C12.7127 22.5537 13.2839 22.9172 13.9175 23.2807Z" fill="#0F4C8F"/>
    <path d="M26.3809 23.7585C27.9908 22.5848 31.7609 17.4437 31.7609 17.4437C31.7609 17.4437 28.8632 15.9273 26.2459 17.4437C23.6182 18.9704 23.7013 19.3547 21.0839 21.5047C18.477 23.6546 16.5348 23.8935 15.0911 23.7896C15.008 23.7896 14.9353 23.7688 14.8522 23.7688C18.6224 25.5033 23.5143 25.7942 26.3809 23.7585Z" fill="#DC0D15"/>
    <path d="M31.896 2.69528C31.896 2.69528 27.6272 1.53203 24.3037 4.38823C21.9252 6.45508 16.7841 20.2791 12.7438 21.0581C11.9649 21.2138 11.3313 21.2242 10.812 21.1619C10.8224 21.1723 10.8224 21.1723 10.8328 21.1827C11.5079 21.245 12.2972 21.2242 13.2112 21.0477C17.2514 20.2687 22.5899 7.50409 25.0619 5.5411C27.5338 3.58849 30.4938 4.07665 30.4938 4.07665L28.1881 8.53232L31.896 2.69528Z" fill="#0F4C8F"/>
    <path d="M52.1906 26.3862L52.0555 27.456C51.9101 28.6296 50.8404 29.5955 49.6563 29.5955H45.8342C44.6606 29.5955 43.8193 28.6296 43.9647 27.456L44.5463 22.6991C44.6917 21.5151 45.7615 20.5699 46.9352 20.5699H50.7573C51.9309 20.5699 52.7722 21.5151 52.6268 22.6991L52.4918 23.7585H50.5807L50.6742 23.0314C50.7157 22.7095 50.4976 22.4602 50.1756 22.4602H47.0494C46.7378 22.4602 46.447 22.7095 46.4158 23.0314L45.9173 27.1236C45.8758 27.4352 46.1043 27.6948 46.4158 27.6948H49.5421C49.8641 27.6948 50.1445 27.4352 50.1756 27.1236L50.2691 26.3758H52.1906V26.3862Z" fill="#005597"/>
    <path d="M54.9118 29.6163L59.544 23.6858H59.5752L58.8897 29.6163H60.6969L61.7563 20.5803H59.866L55.2441 26.5004H55.2026L55.8985 20.5803H54.0809L53.0215 29.6163H54.9118Z" fill="#005597"/>
    <path d="M68.123 27.4871C68.1126 27.6117 68.0087 27.7156 67.8841 27.7156H64.1554L64.3528 26.0227H68.0814C68.2061 26.0227 68.2788 26.1161 68.2684 26.2408L68.123 27.4871ZM68.7461 24.1116H64.5813L64.7682 22.4706H69.9509L70.169 20.5699H64.9863H63.1688L62.9506 22.4706L62.1198 29.6163H68.1022C68.985 29.6163 69.7744 28.8789 69.8782 27.9545L70.1275 25.7838C70.2417 24.8594 69.629 24.1116 68.7461 24.1116Z" fill="#005597"/>
    <path d="M72.4333 29.6163L77.0551 23.6858H77.0966L76.4008 29.6163H78.2184L79.2674 20.5803H77.3771L72.7552 26.5004H72.7137L73.4096 20.5803H71.592L70.543 29.6163H72.4333Z" fill="#005597"/>
    <path d="M86.548 22.7095C86.5584 22.5848 86.4857 22.481 86.3611 22.481H82.4351L82.1339 24.9113H86.0599C86.1845 24.9113 86.2884 24.8179 86.3092 24.6932L86.548 22.7095ZM88.1579 25.1502C88.0437 26.0642 87.2128 26.812 86.2884 26.812H81.895L81.5523 29.6163H79.6412L80.7526 20.5803H87.057C87.9917 20.5803 88.6357 21.3177 88.5214 22.2421L88.1579 25.1502Z" fill="#005597"/>
    <path d="M95.2101 27.4871C95.1894 27.6117 95.0959 27.7156 94.9609 27.7156H91.0349L91.3361 25.2852H95.2621C95.3867 25.2852 95.4698 25.3787 95.4594 25.5033L95.2101 27.4871ZM97.4224 25.0464C97.5366 24.1324 96.8927 23.3846 95.9579 23.3846H91.5646L91.9073 20.5803H89.9963L88.8849 29.6163H95.1894C96.1241 29.6163 96.9446 28.8789 97.0589 27.9545L97.4224 25.0464Z" fill="#005597"/>
</svg>