<svg width="784" height="552" viewBox="0 0 784 552" fill="none" xmlns="http://www.w3.org/2000/svg">
<mask id="mask0_65_16987" style="mask-type:luminance" maskUnits="userSpaceOnUse" x="0" y="0" width="856" height="552">
<path d="M0 0H856V552H0V0Z" fill="white"/>
</mask>
<g mask="url(#mask0_65_16987)">
<path d="M874.9 415.532L731.002 324.637L680.83 484.027L874.9 415.532Z" fill="#0A4677"/>
<path d="M872.143 415.165L681.382 483.613L809.291 616.093L872.143 415.165Z" fill="#045698"/>
<path d="M731.002 324.637L635.07 432.829L681.382 483.613L731.002 324.637Z" fill="#9A0000"/>
<path d="M731.002 324.637L684.69 293.725L635.07 432.829L731.002 324.637Z" fill="#367CB4"/>
<path d="M684.69 293.725L590.963 397.501L635.07 432.829L684.69 293.725Z" fill="#C4E5FF"/>
<path d="M684.69 293.725L568.91 356.653L590.963 397.501L684.69 293.725Z" fill="#96D0FE"/>
<path d="M868.835 291.517L731.002 324.637L872.143 415.165L868.835 291.517Z" fill="#06375F"/>
<path d="M868.835 291.517L776.395 281.213L731.002 324.637L868.835 291.517Z" fill="#D60B0B"/>
<path d="M839.614 174.217L776.211 281.581L857.073 258.029L839.614 174.217Z" fill="#D60B0B"/>
<path d="M590.963 397.501L500.544 391.244L568.91 356.653L590.963 397.501Z" fill="#D60B0B"/>
<path d="M585.083 476.621L681.382 483.613L635.07 432.829L585.083 476.621Z" fill="#D60B0B"/>
<path d="M635.07 432.829L590.963 397.501L585.065 476.655L635.07 432.829Z" fill="#FF3030"/>
<path d="M590.963 397.501L534.727 472.573L500.544 391.244L590.963 397.501Z" fill="#C4E5FF"/>
<path d="M590.963 397.501L585.082 476.621L534.727 472.573L590.963 397.501Z" fill="#D01111"/>
<path d="M500.544 391.244L534.727 472.573L382.926 500.909L500.544 391.244Z" fill="#58A1DB"/>
<path d="M534.727 472.573L555.678 597.325L382.926 500.909L534.727 472.573Z" fill="#FF3030"/>
<path d="M500.544 391.244L386.603 403.757L382.926 500.909L500.544 391.244Z" fill="#96D0FE"/>
<path d="M500.544 391.244L400.202 379.837L386.603 403.757L500.544 391.244Z" fill="#B6DFFF"/>
<path d="M865.527 130.333L776.211 281.581L751.401 172.285L865.527 130.333Z" fill="#FF3030"/>
<path d="M751.401 172.285L684.69 293.725L776.211 281.581L751.401 172.285Z" fill="#96D0FE"/>
<path d="M776.211 281.581L684.69 293.725L731.002 324.637L776.211 281.581Z" fill="#FF3030"/>
<path d="M684.69 293.725L751.401 172.285L643.891 198.781L684.69 293.725Z" fill="#B6DFFF"/>
<path d="M643.891 198.781L568.91 356.653L684.69 293.725L643.891 198.781Z" fill="#FF6161"/>
<path d="M568.91 356.653L438.795 326.845L500.544 391.244L568.91 356.653Z" fill="#B6DFFF"/>
<path d="M438.795 326.845L400.202 379.837L500.544 391.244L438.795 326.845Z" fill="white"/>
<path d="M643.891 198.781L610.811 77.3407L751.401 172.285L643.891 198.781Z" fill="#FF6161"/>
<path d="M865.527 130.333L801.572 36.4927L751.401 172.285L865.527 130.333Z" fill="#FF6161"/>
<path d="M618.53 577.453L585.45 528.877L555.678 597.325L618.53 577.453Z" fill="#045698"/>
<path d="M382.926 500.909L555.678 597.325L382.926 615.725L385.867 502.381L382.926 615.725" fill="#9A0000"/>
<path d="M382.926 615.725L318.237 540.653L227.083 559.052L382.926 615.725Z" fill="#045698"/>
<path d="M681.382 483.613L585.45 528.877L651.61 632.653L681.382 483.613Z" fill="#367CB4"/>
<path d="M681.382 483.613L585.083 476.621L585.45 528.877L681.382 483.613Z" fill="#96D0FE"/>
<path d="M801.572 36.4927L610.811 77.3407L751.401 172.285L801.572 36.4927Z" fill="#96D0FE"/>
<path d="M801.572 36.4928L733.092 -25.2164L610.811 77.3407L801.572 36.4928Z" fill="#C4E5FF"/>
<path d="M680.83 483.337L648.577 632.653L809.291 616.093L680.83 483.337Z" fill="#9A0000"/>
<path d="M585.45 528.877L534.727 472.573L585.083 476.621L585.45 528.877Z" fill="#9A0000"/>
<path d="M643.891 198.781L438.795 326.845L568.91 356.653L643.891 198.781Z" fill="white"/>
<path d="M869.938 -10.9792L801.572 36.4928L733.092 -25.2164L869.938 -10.9792Z" fill="white"/>
<path d="M585.45 528.877L555.678 597.325L534.727 472.573L585.45 528.877Z" fill="#C4E5FF"/>
<path d="M386.603 403.757L264.574 457.945L382.926 500.909L386.603 403.757Z" fill="#58A1DB"/>
<path d="M238.11 284.525L386.603 403.757L264.574 457.945L238.11 284.525Z" fill="#B6DFFF"/>
<path d="M400.202 379.837L238.11 284.525L386.603 403.757L400.202 379.837Z" fill="white"/>
<path d="M264.574 457.945L205.03 428.78L238.11 284.525L264.574 457.945Z" fill="#96D0FE"/>
<path d="M238.11 284.525L95.4985 429.517L205.03 428.78L238.11 284.525Z" fill="white"/>
<path d="M205.03 428.78L88.1471 514.525L95.4985 429.517L205.03 428.78Z" fill="#96D0FE"/>
<path d="M264.574 457.945L318.237 540.653L382.926 500.909L264.574 457.945Z" fill="#D01111"/>
<path d="M227.083 559.052L318.237 540.653L264.574 457.945L227.083 559.052Z" fill="#9A0000"/>
<path d="M382.926 615.725V500.909L318.237 540.653L382.926 615.725Z" fill="#367CB4"/>
<path d="M264.574 457.945L254.925 485.269L227.083 559.052L205.03 428.78L264.574 457.945Z" fill="#58A1DB"/>
<path d="M88.147 514.525L227.083 559.052L205.03 428.78L88.147 514.525Z" fill="#D01111"/>
<path d="M95.4985 429.517L1.49994 445.5L88.147 514.525L95.4985 429.517Z" fill="white"/>
<path d="M88.147 514.525L105.79 580.397L116 571.5L1.5 445.5L88.147 514.525Z" fill="#B6DFFF"/>
<path d="M227.083 559.052L115.346 616.46L88.147 514.525L227.083 559.052Z" fill="#58A1DB"/>
<path d="M866.263 254.717L776.211 281.581L868.835 291.517L866.263 254.717Z" fill="#367CB4"/>
<path d="M397.996 364.381L422.255 322.429L332.939 318.013L397.996 364.381Z" fill="#B6DFFF"/>
<path d="M94.6804 383.796L147.606 246.354L40.1017 322.526L94.6804 383.796Z" fill="#B6DFFF"/>
<path d="M38.527 212.029L39.6297 240.733L74.915 224.173L38.527 212.029Z" fill="white"/>
<path d="M624.043 189.581L590.856 72.4832L526.353 102.289L624.043 189.581Z" fill="#B6DFFF"/>
<path d="M190.695 267.229L168.642 322.429L218.725 279.472L190.695 267.229Z" fill="white"/>
<path d="M56.1697 206.509L6.54974 186.637L33.0137 168.973L56.1697 206.509Z" fill="white"/>
<path d="M684.69 -34.3466L594.271 42.5658L554.575 -34.3466H684.69Z" fill="white"/>
<path d="M410.03 296.86L365.374 283.612L385.316 259.409L410.03 296.86Z" fill="white"/>
<path d="M552.815 142.032L516.429 105.601L466.812 123.816L552.815 142.032Z" fill="white"/>
<path d="M621.838 197.677L456.438 220.493L477.021 265.388L621.838 197.677Z" fill="white"/>
</g>
<mask id="mask1_65_16987" style="mask-type:luminance" maskUnits="userSpaceOnUse" x="29" y="0" width="827" height="552">
<path d="M28.9999 0H856V552H28.9999V0Z" fill="white"/>
</mask>
<g mask="url(#mask1_65_16987)">
<path d="M789.227 127.227L703.435 102.733L751.401 172.285L789.227 127.227Z" stroke="white" stroke-width="0.5" stroke-miterlimit="10" stroke-linecap="round" stroke-linejoin="round"/>
<path d="M801.572 36.4928L610.811 77.3407L733.092 -25.2164L801.572 36.4928Z" stroke="white" stroke-width="0.5" stroke-miterlimit="10" stroke-linecap="round" stroke-linejoin="round"/>
<path d="M751.401 174.486C750.187 174.486 749.202 173.501 749.202 172.285C749.202 171.069 750.187 170.083 751.401 170.083C752.615 170.083 753.6 171.069 753.6 172.285C753.6 173.501 752.615 174.486 751.401 174.486Z" fill="white"/>
<path d="M590.765 54.1567C589.906 53.2967 588.514 53.2967 587.655 54.1567C586.796 55.0167 586.796 56.41 587.655 57.27C588.514 58.13 589.906 58.13 590.765 57.27C591.624 56.41 591.624 55.0167 590.765 54.1567Z" fill="white"/>
<path d="M528.478 57.6675C527.619 56.8075 526.228 56.8075 525.369 57.6675C524.51 58.5275 524.51 59.9207 525.369 60.7808C526.228 61.6408 527.619 61.6408 528.478 60.7808C529.337 59.9207 529.337 58.5275 528.478 57.6675Z" fill="white"/>
<path d="M511.282 124.018C510.546 124.018 509.949 123.42 509.949 122.683C509.949 121.946 510.546 121.348 511.282 121.348C512.018 121.348 512.615 121.946 512.615 122.683C512.615 123.42 512.018 124.018 511.282 124.018Z" fill="white"/>
<path d="M183.513 368.06C182.654 367.2 181.263 367.2 180.404 368.06C179.545 368.92 179.545 370.314 180.404 371.174C181.263 372.034 182.654 372.034 183.513 371.174C184.372 370.315 184.372 368.92 183.513 368.06Z" fill="white"/>
<path d="M96.7699 428.059C95.9109 427.199 94.5193 427.199 93.6604 428.059C92.8014 428.919 92.8014 430.313 93.6604 431.173C94.5193 432.033 95.9109 432.033 96.7699 431.173C97.6289 430.313 97.6289 428.919 96.7699 428.059Z" fill="white"/>
<path d="M266.581 456.38C265.722 455.52 264.33 455.52 263.471 456.38C262.612 457.24 262.612 458.634 263.471 459.494C264.33 460.354 265.722 460.354 266.581 459.494C267.44 458.635 267.44 457.24 266.581 456.38Z" fill="white"/>
<path d="M645.898 196.573C645.039 195.713 643.647 195.713 642.788 196.573C641.929 197.433 641.929 198.826 642.788 199.686C643.647 200.546 645.039 200.546 645.898 199.686C646.757 198.826 646.757 197.433 645.898 196.573Z" fill="white"/>
<path d="M552.455 13.9601C551.596 13.1001 550.203 13.1001 549.345 13.9601C548.486 14.8201 548.486 16.2133 549.345 17.0734C550.204 17.9334 551.596 17.9334 552.455 17.0734C553.314 16.2133 553.314 14.8201 552.455 13.9601Z" fill="white"/>
<path d="M767.743 239.276C766.884 238.415 765.492 238.415 764.633 239.276C763.774 240.136 763.774 241.529 764.633 242.389C765.492 243.249 766.884 243.249 767.743 242.389C768.602 241.529 768.602 240.136 767.743 239.276Z" fill="white"/>
<path d="M610.811 79.5422C609.597 79.5422 608.612 78.5566 608.612 77.3408C608.612 76.125 609.597 75.1394 610.811 75.1394C612.025 75.1394 613.01 76.125 613.01 77.3408C613.01 78.5566 612.025 79.5422 610.811 79.5422Z" fill="white"/>
<path d="M478.138 221.49C477.279 220.63 475.888 220.63 475.029 221.49C474.17 222.35 474.17 223.743 475.029 224.603C475.888 225.463 477.279 225.463 478.138 224.603C478.997 223.744 478.997 222.35 478.138 221.49Z" fill="white"/>
<path d="M470.489 288.12C469.63 287.26 468.239 287.26 467.38 288.12C466.521 288.98 466.521 290.374 467.38 291.233C468.239 292.093 469.631 292.093 470.489 291.233C471.348 290.374 471.348 288.98 470.489 288.12Z" fill="white"/>
<path d="M636.387 430.957C635.528 430.097 634.137 430.097 633.278 430.957C632.419 431.817 632.419 433.211 633.278 434.071C634.137 434.931 635.528 434.931 636.387 434.071C637.246 433.211 637.246 431.817 636.387 430.957Z" fill="white"/>
<path d="M388.257 401.931C387.398 401.071 386.006 401.071 385.147 401.931C384.288 402.791 384.288 404.184 385.147 405.044C386.006 405.904 387.398 405.904 388.257 405.044C389.114 404.185 389.114 402.791 388.257 401.931Z" fill="white"/>
<path d="M502.099 389.688C501.24 388.828 499.849 388.828 498.99 389.688C498.131 390.548 498.131 391.942 498.99 392.801C499.849 393.661 501.24 393.661 502.099 392.801C502.958 391.942 502.958 390.548 502.099 389.688Z" fill="white"/>
<path d="M685.326 296.029C683.626 296.029 682.248 294.649 682.248 292.948C682.248 291.246 683.626 289.866 685.326 289.866C687.026 289.866 688.404 291.246 688.404 292.948C688.404 294.649 687.026 296.029 685.326 296.029Z" fill="white"/>
<path d="M591.324 401.185C589.624 401.185 588.246 399.805 588.246 398.104C588.246 396.402 589.624 395.022 591.324 395.022C593.023 395.022 594.401 396.402 594.401 398.104C594.401 399.805 593.023 401.185 591.324 401.185Z" fill="white"/>
<path d="M493.179 263.994C492.32 263.134 490.928 263.134 490.069 263.994C489.21 264.854 489.21 266.247 490.069 267.107C490.928 267.967 492.32 267.967 493.179 267.107C494.038 266.248 494.038 264.854 493.179 263.994Z" fill="white"/>
<path d="M441.082 312.16C440.543 311.621 439.668 311.621 439.129 312.16C438.59 312.7 438.59 313.576 439.129 314.116C439.668 314.655 440.543 314.655 441.082 314.116C441.621 313.576 441.621 312.7 441.082 312.16Z" fill="white"/>
<path d="M434.132 248.438C433.593 247.898 432.718 247.898 432.179 248.438C431.64 248.977 431.64 249.853 432.179 250.393C432.718 250.933 433.593 250.933 434.132 250.393C434.671 249.853 434.671 248.977 434.132 248.438Z" fill="white"/>
<path d="M439.037 328.101C438.274 328.101 437.656 327.482 437.656 326.719C437.656 325.956 438.274 325.337 439.037 325.337C439.799 325.337 440.417 325.956 440.417 326.719C440.417 327.482 439.799 328.101 439.037 328.101Z" fill="white"/>
<path d="M568.784 357.909C568.022 357.909 567.403 357.29 567.403 356.527C567.403 355.764 568.022 355.145 568.784 355.145C569.546 355.145 570.165 355.764 570.165 356.527C570.165 357.29 569.546 357.909 568.784 357.909Z" fill="white"/>
<path d="M323.865 243.677C323.326 243.137 322.452 243.137 321.912 243.677C321.373 244.217 321.373 245.092 321.912 245.632C322.452 246.172 323.326 246.172 323.865 245.632C324.404 245.092 324.404 244.217 323.865 243.677Z" fill="white"/>
<path d="M239.212 284.042C238.673 283.502 237.799 283.502 237.26 284.042C236.72 284.581 236.72 285.457 237.26 285.997C237.799 286.537 238.673 286.537 239.212 285.997C239.752 285.457 239.752 284.581 239.212 284.042Z" fill="white"/>
<path d="M369.075 433.082C368.535 432.542 367.661 432.542 367.122 433.082C366.583 433.621 366.583 434.497 367.122 435.037C367.661 435.577 368.535 435.577 369.075 435.037C369.614 434.497 369.614 433.621 369.075 433.082Z" fill="white"/>
<path d="M703.435 104.934C702.221 104.934 701.236 103.949 701.236 102.733C701.236 101.517 702.221 100.531 703.435 100.531C704.649 100.531 705.634 101.517 705.634 102.733C705.634 103.949 704.649 104.934 703.435 104.934Z" fill="white"/>
<path d="M884.824 123.157L751.401 172.285L776.211 281.581L910.185 241.285" stroke="white" stroke-width="0.5" stroke-miterlimit="10" stroke-linecap="round" stroke-linejoin="round"/>
<path d="M433.282 249.565L468.934 289.676L439.898 313.597L476.286 221.965L491.723 266.125L568.91 356.653L684.69 293.725L751.401 172.285L610.811 77.3407L589.309 55.8127L527.008 59.6767L511.571 121.868" stroke="white" stroke-width="0.5" stroke-miterlimit="10" stroke-linecap="round" stroke-linejoin="round"/>
<path d="M684.69 293.725L731.002 324.637L635.07 432.829L684.69 293.725Z" stroke="white" stroke-width="0.5" stroke-miterlimit="10" stroke-linecap="round" stroke-linejoin="round"/>
<path d="M731.002 324.637L776.211 281.581L684.69 293.725L643.891 198.781L610.811 77.3407" stroke="white" stroke-width="0.5" stroke-miterlimit="10" stroke-linecap="round" stroke-linejoin="round"/>
<path d="M635.07 432.829L590.963 397.501L585.083 476.621L635.07 432.829Z" stroke="white" stroke-width="0.5" stroke-miterlimit="10" stroke-linecap="round" stroke-linejoin="round"/>
<path d="M589.309 55.8127L550.9 15.5167" stroke="white" stroke-width="0.5" stroke-miterlimit="10" stroke-linecap="round" stroke-linejoin="round"/>
<path d="M857.073 258.029L839.614 174.217L766.838 240.733L684.69 293.725L590.963 397.501L500.544 391.244L382.926 500.909" stroke="white" stroke-width="0.5" stroke-miterlimit="10" stroke-linecap="round" stroke-linejoin="round"/>
<path d="M801.546 36.4663L751.401 172.285L643.891 198.781" stroke="white" stroke-width="0.5" stroke-miterlimit="10" stroke-linecap="round" stroke-linejoin="round"/>
<path d="M766.838 240.733L643.891 198.781" stroke="white" stroke-width="0.5" stroke-miterlimit="10" stroke-linecap="round" stroke-linejoin="round"/>
<path d="M635.07 432.829L681.382 483.613L811.221 618.025" stroke="white" stroke-width="0.5" stroke-miterlimit="10" stroke-linecap="round" stroke-linejoin="round"/>
<path d="M322.648 244.781L298.756 276.061L269.72 285.26L238.11 284.525L386.603 403.757L382.926 500.909L534.727 472.573L590.963 397.501L568.91 356.653L643.891 198.781L491.723 266.125" stroke="white" stroke-width="0.5" stroke-miterlimit="10" stroke-linecap="round" stroke-linejoin="round"/>
<path d="M386.603 403.757L500.544 391.244L534.727 472.573L585.083 476.621" stroke="white" stroke-width="0.5" stroke-miterlimit="10" stroke-linecap="round" stroke-linejoin="round"/>
<path d="M299.721 274.658C299.182 274.118 298.308 274.118 297.768 274.658C297.229 275.197 297.229 276.073 297.768 276.613C298.308 277.153 299.182 277.153 299.721 276.613C300.26 276.073 300.26 275.197 299.721 274.658Z" fill="white"/>
<path d="M270.386 283.789C269.847 283.249 268.972 283.249 268.433 283.789C267.894 284.329 267.894 285.204 268.433 285.744C268.972 286.284 269.847 286.284 270.386 285.744C270.925 285.204 270.925 284.329 270.386 283.789Z" fill="white"/>
<path d="M288.856 238.502C288.316 237.962 287.442 237.962 286.903 238.502C286.364 239.041 286.364 239.917 286.903 240.457C287.442 240.997 288.316 240.997 288.856 240.457C289.395 239.917 289.395 239.041 288.856 238.502Z" fill="white"/>
<path d="M348.376 305.595C347.614 305.595 346.996 304.976 346.996 304.213C346.996 303.449 347.614 302.831 348.376 302.831C349.139 302.831 349.757 303.449 349.757 304.213C349.757 304.976 349.139 305.595 348.376 305.595Z" fill="white"/>
<path d="M401.052 378.986C400.513 378.446 399.638 378.446 399.099 378.986C398.56 379.525 398.56 380.401 399.099 380.941C399.638 381.481 400.513 381.481 401.052 380.941C401.591 380.401 401.591 379.525 401.052 378.986Z" fill="white"/>
<path d="M400.202 379.837L500.544 391.244L368.224 433.933L400.202 379.837Z" stroke="white" stroke-width="0.5" stroke-miterlimit="10" stroke-linecap="round" stroke-linejoin="round"/>
<path d="M238.11 284.525L264.574 457.945L205.03 428.78L238.11 284.525Z" stroke="white" stroke-width="0.5" stroke-miterlimit="10" stroke-linecap="round" stroke-linejoin="round"/>
<path d="M287.73 239.629L348.376 304.213L386.602 403.757L264.574 457.945L181.874 369.901L238.11 284.525L95.4985 429.517" stroke="white" stroke-width="0.5" stroke-miterlimit="10" stroke-linecap="round" stroke-linejoin="round"/>
<path d="M205.03 428.78L227.083 559.052L88.1471 514.525" stroke="white" stroke-width="0.5" stroke-miterlimit="10" stroke-linecap="round" stroke-linejoin="round"/>
<path d="M206.007 427.803C205.468 427.263 204.593 427.263 204.054 427.803C203.515 428.343 203.515 429.219 204.054 429.759C204.593 430.298 205.468 430.298 206.007 429.759C206.546 429.219 206.546 428.343 206.007 427.803Z" fill="white"/>
<path d="M72.7097 395.66L95.4985 429.517L88.147 514.525L205.03 428.78L95.4985 429.517L-64.021 451.597" stroke="white" stroke-width="0.5" stroke-miterlimit="10" stroke-linecap="round" stroke-linejoin="round"/>
<path d="M73.6867 394.683C73.1475 394.143 72.2731 394.143 71.7339 394.683C71.1947 395.223 71.1947 396.099 71.7339 396.639C72.2731 397.178 73.1475 397.178 73.6867 396.639C74.2259 396.099 74.2259 395.223 73.6867 394.683Z" fill="white"/>
<path d="M79.5672 341.691C79.028 341.151 78.1536 341.151 77.6144 341.691C77.0752 342.231 77.0752 343.107 77.6144 343.647C78.1536 344.186 79.028 344.186 79.5672 343.647C80.1064 343.107 80.1064 342.231 79.5672 341.691Z" fill="white"/>
<path d="M133.437 364.533C132.674 364.533 132.056 363.914 132.056 363.151C132.056 362.388 132.674 361.769 133.437 361.769C134.199 361.769 134.817 362.388 134.817 363.151C134.817 363.914 134.199 364.533 133.437 364.533Z" fill="white"/>
<path d="M383.961 499.874C383.421 499.334 382.547 499.334 382.008 499.874C381.469 500.413 381.469 501.289 382.008 501.829C382.547 502.369 383.421 502.369 383.961 501.829C384.5 501.289 384.5 500.413 383.961 499.874Z" fill="white"/>
<path d="M500.544 391.244L438.795 326.845L568.91 356.653" stroke="white" stroke-width="0.5" stroke-miterlimit="10" stroke-linecap="round" stroke-linejoin="round"/>
<path d="M72.7097 395.66L133.724 363.277L78.5902 342.668" stroke="white" stroke-width="0.5" stroke-miterlimit="10" stroke-linecap="round" stroke-linejoin="round"/>
<path d="M584.956 477.762C584.193 477.762 583.575 477.143 583.575 476.379C583.575 475.616 584.193 474.997 584.956 474.997C585.718 474.997 586.336 475.616 586.336 476.379C586.336 477.143 585.718 477.762 584.956 477.762Z" fill="white"/>
<path d="M680.98 485.121C680.218 485.121 679.6 484.502 679.6 483.739C679.6 482.975 680.218 482.356 680.98 482.356C681.743 482.356 682.361 482.975 682.361 483.739C682.361 484.502 681.743 485.121 680.98 485.121Z" fill="white"/>
</g>
</svg>
